<svg id="Capa_1" enable-background="new 0 0 512 512" height="512" viewBox="0 0 512 512" width="512" xmlns="http://www.w3.org/2000/svg"><g><g><path d="m256 130c102.55 0 186 83.429 186 186 0 102.56-83.44 186-186 186s-186-83.44-186-186 83.443-186 186-186z" fill="#a0c8ff"/><circle cx="256" cy="316" fill="#eefaff" r="126"/><circle cx="256" cy="40" fill="#918787" r="30"/></g><g><path d="m256 180c-74.991 0-136 61.009-136 136s61.009 136 136 136c74.99 0 136-61.009 136-136s-61.01-136-136-136zm0 252c-63.962 0-116-52.038-116-116s52.038-116 116-116c63.963 0 116 52.038 116 116s-52.037 116-116 116z"/><circle cx="387" cy="447" r="10"/><path d="m256 512c35.719 0 70.707-9.747 101.181-28.186 4.726-2.859 6.238-9.007 3.379-13.732-2.858-4.725-9.008-6.24-13.732-3.379-27.351 16.549-58.759 25.297-90.828 25.297-97.047 0-176-78.953-176-176 0-101.77 83.708-176 176-176 95.723 0 176 77.047 176 176 0 32.068-8.748 63.475-25.297 90.827-2.859 4.725-1.347 10.874 3.379 13.732 4.728 2.86 10.873 1.346 13.732-3.379 18.44-30.474 28.186-65.462 28.186-101.18 0-80.276-48.751-150.878-120.596-180.911l-45.603-68.412c6.498-7.249 10.199-16.696 10.199-26.677 0-22.056-17.944-40-40-40s-40 17.944-40 40c0 9.98 3.701 19.428 10.198 26.676l-45.602 68.413c-71.737 29.988-120.596 100.525-120.596 180.911 0 108.075 87.925 196 196 196zm-44.749-386.842 31.598-47.402c4.199 1.463 8.629 2.244 13.151 2.244s8.952-.781 13.151-2.244l31.598 47.402c-14.583-3.422-29.549-5.158-44.749-5.158-15.201 0-30.166 1.736-44.749 5.158zm44.749-105.158c11.028 0 20 8.972 20 20 0 11.08-8.999 20-20 20-10.992 0-20-8.911-20-20 0-11.028 8.972-20 20-20z"/></g></g></svg>